<svg xmlns="http://www.w3.org/2000/svg" xmlns:xlink="http://www.w3.org/1999/xlink" width="83" height="83"><defs><path id="a" d="M455.86 1264.28c-.23.44-.68.72-1.17.72H374.3a1.31 1.31 0 0 1-1.08-2.05l29.48-43.35v-36.29c0-.72.58-1.31 1.3-1.31h31.46a1.31 1.31 0 0 1 1.17 1.9l-4.95 9.9 4.95 9.9a1.31 1.31 0 0 1-1.17 1.89h-30.14v14l19.62 27.24 9.56-10.25h.01l.08-.08.02-.02.23-.16h.01l.11-.05.04-.02.1-.03.04-.01.06-.02h.03a1.4 1.4 0 0 1 .28-.02h.05l.1.01.04.01.1.02.03.01.1.04h.03l.12.07.04.02.08.05.04.03.06.05.04.03a1.34 1.34 0 0 1 .16.17l.02.02 19.22 26.21c.29.4.33.93.1 1.37zm-50.53-61.31h28.02l-4.3-8.59c-.18-.37-.18-.8 0-1.17l4.3-8.59h-28.02zm13.62 59.4h13.96l-25.13-34.89 5.2 16.25a1.31 1.31 0 1 1-2.5.8l-6.9-21.56-26.8 39.4h39.42l-3.67-11.46a1.31 1.31 0 1 1 2.5-.8l3.92 12.27zm17.19 0h2.97l-4.43-22.13-8.17 8.76 9.63 13.38zm15.96 0l-14.18-19.34 3.86 19.35z"/></defs><use fill="#6f9cd6" xlink:href="#a" transform="translate(-373 -1182)"/></svg>