<svg xmlns="http://www.w3.org/2000/svg" xmlns:xlink="http://www.w3.org/1999/xlink" width="80" height="80" viewBox="0 0 80 80"><defs><path id="hid3a" d="M868.95 1213.42c-.54 0-1.01.33-1.19.83a7.17 7.17 0 1 1-.2-5.23c.2.46.65.77 1.16.77.92 0 1.52-.95 1.15-1.79a9.7 9.7 0 1 0 .28 7.07 1.26 1.26 0 0 0-1.2-1.65z"/><path id="hid3b" d="M891.91 1194.63h-8.3a26.36 26.36 0 0 1 3.92 13.71c0 .2-.02.39-.05.58l-5 28.3v3.73h7.75a4.64 4.64 0 1 1 0 2.52h-7.76v15.35a3.19 3.19 0 0 1-3.18 3.18h-29.84a3.19 3.19 0 0 1-3.19-3.18v-16.37c0-.37-.3-.66-.65-.66h-6.27a3.19 3.19 0 0 1-3.18-3.18v-1.87h-2.53v12.2c0 .7-.56 1.27-1.26 1.27h-2.28a4.64 4.64 0 1 1 0-2.53h1.02v-12.2c0-.7.56-1.27 1.26-1.27h3.79v-5.24c0-.36-.3-.65-.66-.65a5.22 5.22 0 0 1-4.48-2.5 5.22 5.22 0 0 1-.2-5.14l3.43-6.79c.05-.09.07-.19.07-.3v-7.95-.02c.06-4.36 1.73-8.8 4.67-12.67h-8.9a4.64 4.64 0 1 1 0-2.53h11.09A27.94 27.94 0 0 1 861 1182a26.36 26.36 0 0 1 20.84 10.1h10.07a4.64 4.64 0 1 1 0 2.53zm2.35-1.26a2.1 2.1 0 1 0 4.22 0 2.1 2.1 0 0 0-4.22 0zm-66.52-1.69a2.1 2.1 0 1 0-4.22 0 2.1 2.1 0 0 0 4.22 0zm0 57.27a2.1 2.1 0 1 0-4.22 0 2.1 2.1 0 0 0 4.22 0zm64.84-6.74a2.1 2.1 0 1 0 4.21 0 2.1 2.1 0 0 0-4.21 0zm-47.67-51.79h7.67c.7 0 1.26.57 1.26 1.26v6.15c.37-.2.74-.37 1.12-.52.26-.1.42-.36.42-.64v-1.69a3.23 3.23 0 0 1 3.23-3.23h4.78a3.23 3.23 0 0 1 3.23 3.23v1.69c0 .28.16.53.42.64.98.4 1.92.91 2.8 1.51v-5.45c0-.7.57-1.26 1.27-1.26h7.36a23.95 23.95 0 0 0-17.47-7.58c-6.3 0-11.88 2.36-16.1 5.9zm30.82 16.54l1.46-.84a.7.7 0 0 0 .26-.96l-2.4-4.14a.7.7 0 0 0-.95-.26l-1.46.84a3.2 3.2 0 0 1-3.57-.22c-.92-.71-1.93-1.3-3-1.74a3.2 3.2 0 0 1-1.98-2.97v-1.69a.7.7 0 0 0-.7-.7h-4.78a.7.7 0 0 0-.7.7v1.69a3.2 3.2 0 0 1-1.98 2.97c-.85.35-1.66.8-2.42 1.32-.12.13-.26.23-.43.3l-.15.12a3.2 3.2 0 0 1-3.57.22l-1.46-.84a.7.7 0 0 0-.96.26l-2.39 4.14a.7.7 0 0 0 .26.96l1.46.84a3.2 3.2 0 0 1 1.59 3.2 13.39 13.39 0 0 0 0 3.47 3.2 3.2 0 0 1-1.59 3.2l-1.46.84a.7.7 0 0 0-.26.96l2.4 4.14a.7.7 0 0 0 .95.26l1.46-.84a3.23 3.23 0 0 1 3.57.22c.92.71 1.93 1.3 3 1.74a3.2 3.2 0 0 1 1.98 2.97v1.69c0 .38.31.7.7.7h4.78a.7.7 0 0 0 .7-.7v-1.69c0-1.3.78-2.47 1.98-2.97a13.25 13.25 0 0 0 3-1.74 3.2 3.2 0 0 1 3.57-.22l1.46.84a.7.7 0 0 0 .96-.26l2.39-4.14a.7.7 0 0 0-.26-.96l-1.46-.84a3.2 3.2 0 0 1-1.58-3.2 13.41 13.41 0 0 0 0-3.47 3.2 3.2 0 0 1 1.58-3.2zm-37.05 22.01v5.24h21.06v-2.1-.08h-1.13a3.23 3.23 0 0 1-3.23-3.22v-1.69a.69.69 0 0 0-.42-.64 15.78 15.78 0 0 1-3.57-2.06.69.69 0 0 0-.76-.05l-1.47.85a3.2 3.2 0 0 1-4.4-1.18l-2.4-4.15a3.23 3.23 0 0 1 1.18-4.4l1.47-.85a.69.69 0 0 0 .34-.69 15.87 15.87 0 0 1 0-4.12.69.69 0 0 0-.35-.68l-1.46-.85a3.2 3.2 0 0 1-1.18-4.4l2.4-4.15a3.2 3.2 0 0 1 4.4-1.18l1.47.85c.21.12.48.12.69 0v-6.47h-9.03c-3.37 3.77-5.38 8.34-5.44 12.7v7.95c0 .5-.12 1-.34 1.44l-3.44 6.78a2.71 2.71 0 0 0 2.44 3.96 3.19 3.19 0 0 1 3.17 3.2zm41.27 29.85v-15.35H861c-.7 0-1.26-.56-1.26-1.26v-5.47h-21.06v1.87c0 .36.3.65.66.65h6.27a3.19 3.19 0 0 1 3.18 3.19v16.37c0 .36.3.65.66.65h29.84c.36 0 .66-.3.66-.65zm.6-64.19h-8.18v4.21l.47-.27a3.2 3.2 0 0 1 4.4 1.18l2.4 4.15a3.23 3.23 0 0 1-1.18 4.4l-1.47.85a.69.69 0 0 0-.34.68 15.87 15.87 0 0 1 0 4.13c-.04.27.1.54.35.68l1.46.84a3.2 3.2 0 0 1 1.18 4.41l-2.4 4.15a3.2 3.2 0 0 1-4.4 1.18l-1.46-.85a.69.69 0 0 0-.77.05c-1.1.84-2.3 1.53-3.57 2.06a.69.69 0 0 0-.42.64v1.69a3.23 3.23 0 0 1-3.23 3.22h-1.13v8.92h17.69v-3.62c0-.19.01-.38.05-.56l4.99-28.29v-.12a23.84 23.84 0 0 0-4.45-13.73z"/></defs><g><g transform="translate(-821 -1182)"><use fill="#6f9cd6" xlink:href="#hid3a"/></g><g transform="translate(-821 -1182)"><use fill="#6f9cd6" xlink:href="#hid3b"/></g></g></svg>